<?xml version="1.0"?>
<svg xmlns="http://www.w3.org/2000/svg" xmlns:xlink="http://www.w3.org/1999/xlink" xmlns:svgjs="http://svgjs.com/svgjs" version="1.1" width="512" height="512" x="0" y="0" viewBox="0 0 512 512" style="enable-background:new 0 0 512 512" xml:space="preserve"><g><g xmlns="http://www.w3.org/2000/svg"><path d="m415.822 416.078c-24.646-17.561-67.938-25.94-98.168-29.512 94.322-145.58 88.986-137.26 89.547-138.381 27.472-54.324 24.442-117.579-8.111-169.213-32.012-50.775-87.047-80.278-147.281-78.928-124.79 2.811-203.552 136.369-147.022 248.14.559 1.117-5.051-7.624 89.547 138.381-40.581 4.796-117.359 19.883-117.359 60.985 0 64.898 198.903 79.657 299.314 49.354 16.641-5.02 29.932-11.031 39.533-17.881 25.605-18.255 25.605-44.674 0-62.945zm-284.613-182.135c-46.063-92.274 19.194-201.6 121.28-203.906 106.511-2.387 175.309 109.699 128.29 203.906l-97.048 149.812-19.042 29.382-.81 1.26c-2.51 3.87-6.35 4.29-7.891 4.29-1.53 0-5.37-.42-7.881-4.29l-.81-1.26c-24.675-38.077-3.462-5.333-116.088-179.194zm236.419 234.239c-61.269 18.499-161.999 18.502-223.278 0-30.872-9.311-37.373-19.091-37.373-20.632 0-5.81 29.874-26.312 105.678-32.693l10.271 15.851c15.526 23.981 50.628 23.952 66.135 0l10.271-15.851c25.662 2.16 49.084 6.27 68.295 12.061 30.872 9.321 37.373 19.091 37.373 20.632s-6.5 11.321-37.372 20.632z" fill="#000000" data-original="#000000" style=""/><path d="m333.805 245.394c.036-.332 10.511-96.308 10.511-96.308 1.297-13.497-9.33-25.232-22.912-25.232h-18.741v-34.252c0-16.041-13.051-29.092-29.102-29.092h-35.143c-16.051 0-29.102 13.051-29.102 29.092v34.253h-18.741c-14.408 0-24.645 13.111-22.882 25.452l10.621 96.118c1.39 12.591 11.991 22.082 24.662 22.082h106.169c12.679-.001 23.28-9.512 24.66-22.113zm-94.487-154.882h33.343v33.333h-33.343zm-31.693 146.991-9.251-83.647h115.239l-9.131 83.647z" fill="#000000" data-original="#000000" style=""/></g></g></svg>
